<mxfile host="Electron" modified="2023-09-19T11:01:11.974Z" agent="Mozilla/5.0 (Windows NT 10.0; Win64; x64) AppleWebKit/537.36 (KHTML, like Gecko) draw.io/21.7.5 Chrome/114.0.5735.289 Electron/25.8.1 Safari/537.36" etag="MisJeL2Ob5eeM5DysYB-" version="21.7.5" type="device" pages="2">
  <diagram id="oY38kdm5o83EHuReV2T8" name="user.created">
    <mxGraphModel dx="780" dy="1902" grid="1" gridSize="10" guides="1" tooltips="1" connect="1" arrows="1" fold="1" page="1" pageScale="1" pageWidth="980" pageHeight="1390" math="0" shadow="0">
      <root>
        <mxCell id="0" />
        <mxCell id="1" parent="0" />
        <mxCell id="sdEwPJp4zkoKklKMmfEP-1" style="edgeStyle=none;curved=1;rounded=0;orthogonalLoop=1;jettySize=auto;html=1;fontSize=12;startSize=8;endSize=8;fontFamily=Helvetica;" parent="1" source="sdEwPJp4zkoKklKMmfEP-2" edge="1">
          <mxGeometry relative="1" as="geometry">
            <mxPoint x="270" y="-1090" as="targetPoint" />
          </mxGeometry>
        </mxCell>
        <mxCell id="sdEwPJp4zkoKklKMmfEP-2" value="User" style="rounded=0;whiteSpace=wrap;html=1;fontFamily=Helvetica;" parent="1" vertex="1">
          <mxGeometry x="210" y="-1370" width="120" height="40" as="geometry" />
        </mxCell>
        <mxCell id="sdEwPJp4zkoKklKMmfEP-3" style="edgeStyle=none;curved=1;rounded=0;orthogonalLoop=1;jettySize=auto;html=1;fontSize=12;startSize=8;endSize=8;fontFamily=Helvetica;" parent="1" source="sdEwPJp4zkoKklKMmfEP-4" edge="1">
          <mxGeometry relative="1" as="geometry">
            <mxPoint x="550" y="-1090" as="targetPoint" />
          </mxGeometry>
        </mxCell>
        <mxCell id="sdEwPJp4zkoKklKMmfEP-4" value="Workspace" style="rounded=0;whiteSpace=wrap;html=1;fontFamily=Helvetica;" parent="1" vertex="1">
          <mxGeometry x="490" y="-1370" width="120" height="40" as="geometry" />
        </mxCell>
        <mxCell id="LEW-G3g9cezNZrhg7D1--3" value="" style="group" parent="1" vertex="1" connectable="0">
          <mxGeometry x="540" y="-1290" width="138" height="20" as="geometry" />
        </mxCell>
        <mxCell id="LEW-G3g9cezNZrhg7D1--1" value="2" style="rounded=0;whiteSpace=wrap;html=1;fontSize=16;fontFamily=Helvetica;verticalAlign=middle;" parent="LEW-G3g9cezNZrhg7D1--3" vertex="1">
          <mxGeometry width="20" height="20" as="geometry" />
        </mxCell>
        <mxCell id="LEW-G3g9cezNZrhg7D1--2" value="save the user" style="text;html=1;fillColor=none;align=left;verticalAlign=middle;whiteSpace=wrap;rounded=0;fontSize=12;fontFamily=Helvetica;spacingLeft=4;" parent="LEW-G3g9cezNZrhg7D1--3" vertex="1">
          <mxGeometry x="20" width="118" height="20" as="geometry" />
        </mxCell>
        <mxCell id="-xzCKRivMfdFnWui1aVe-1" value="" style="group;fillColor=#cdeb8b;strokeColor=#36393d;" parent="1" vertex="1" connectable="0">
          <mxGeometry x="260" y="-1310" width="138" height="20" as="geometry" />
        </mxCell>
        <mxCell id="-xzCKRivMfdFnWui1aVe-2" value="1" style="rounded=0;whiteSpace=wrap;html=1;fontSize=16;fontFamily=Helvetica;verticalAlign=middle;" parent="-xzCKRivMfdFnWui1aVe-1" vertex="1">
          <mxGeometry width="20" height="20" as="geometry" />
        </mxCell>
        <mxCell id="-xzCKRivMfdFnWui1aVe-3" value="user.created" style="text;html=1;fillColor=#008a00;align=left;verticalAlign=middle;whiteSpace=wrap;rounded=0;fontSize=12;fontFamily=Helvetica;spacingLeft=4;fontColor=#ffffff;strokeColor=#005700;" parent="-xzCKRivMfdFnWui1aVe-1" vertex="1">
          <mxGeometry x="20" width="118" height="20" as="geometry" />
        </mxCell>
        <mxCell id="-xzCKRivMfdFnWui1aVe-4" value="" style="group" parent="1" vertex="1" connectable="0">
          <mxGeometry y="-1190" width="137" height="50" as="geometry" />
        </mxCell>
        <mxCell id="smrDSZM0pcQOYa3LXeEk-5" value="send password and email to /verify-password" style="text;html=1;fillColor=none;align=right;verticalAlign=middle;whiteSpace=wrap;rounded=0;fontSize=12;fontFamily=Helvetica;spacingLeft=4;spacingRight=4;" parent="-xzCKRivMfdFnWui1aVe-4" vertex="1">
          <mxGeometry width="107" height="50" as="geometry" />
        </mxCell>
        <mxCell id="smrDSZM0pcQOYa3LXeEk-6" value="1" style="rounded=0;whiteSpace=wrap;html=1;fontSize=16;container=0;fontFamily=Helvetica;verticalAlign=middle;" parent="-xzCKRivMfdFnWui1aVe-4" vertex="1">
          <mxGeometry x="107" width="30" height="50" as="geometry" />
        </mxCell>
        <mxCell id="-xzCKRivMfdFnWui1aVe-6" style="edgeStyle=none;curved=1;rounded=0;orthogonalLoop=1;jettySize=auto;html=1;exitX=0;exitY=1;exitDx=0;exitDy=0;entryX=0;entryY=0;entryDx=0;entryDy=0;fontSize=12;startSize=8;endSize=8;" parent="1" source="-xzCKRivMfdFnWui1aVe-3" target="LEW-G3g9cezNZrhg7D1--1" edge="1">
          <mxGeometry relative="1" as="geometry" />
        </mxCell>
        <mxCell id="-xzCKRivMfdFnWui1aVe-7" value="" style="group" parent="1" vertex="1" connectable="0">
          <mxGeometry x="540" y="-1260" width="138" height="60" as="geometry" />
        </mxCell>
        <mxCell id="-xzCKRivMfdFnWui1aVe-8" value="3" style="rounded=0;whiteSpace=wrap;html=1;fontSize=16;fontFamily=Helvetica;verticalAlign=middle;" parent="-xzCKRivMfdFnWui1aVe-7" vertex="1">
          <mxGeometry width="20" height="60" as="geometry" />
        </mxCell>
        <mxCell id="-xzCKRivMfdFnWui1aVe-9" value="save workspace with&amp;nbsp; defaultWorkspaceId" style="text;html=1;fillColor=none;align=left;verticalAlign=middle;whiteSpace=wrap;rounded=0;fontSize=12;fontFamily=Helvetica;spacingLeft=4;" parent="-xzCKRivMfdFnWui1aVe-7" vertex="1">
          <mxGeometry x="20" width="118" height="60" as="geometry" />
        </mxCell>
        <mxCell id="-xzCKRivMfdFnWui1aVe-21" value="" style="group;fillColor=#008a00;fontColor=#ffffff;strokeColor=#005700;" parent="1" vertex="1" connectable="0">
          <mxGeometry x="78.5" y="-1310" width="131.5" height="20" as="geometry" />
        </mxCell>
        <mxCell id="-xzCKRivMfdFnWui1aVe-18" value="workspace.created" style="text;html=1;strokeColor=#005700;fillColor=#008a00;align=right;verticalAlign=middle;whiteSpace=wrap;rounded=0;fontSize=12;fontFamily=Helvetica;spacingLeft=4;spacingRight=4;fontColor=#ffffff;" parent="-xzCKRivMfdFnWui1aVe-21" vertex="1">
          <mxGeometry width="108.5" height="20" as="geometry" />
        </mxCell>
        <mxCell id="-xzCKRivMfdFnWui1aVe-19" value="4" style="rounded=0;whiteSpace=wrap;html=1;fontSize=16;container=0;fontFamily=Helvetica;verticalAlign=middle;" parent="-xzCKRivMfdFnWui1aVe-21" vertex="1">
          <mxGeometry x="108.5" width="23" height="20" as="geometry" />
        </mxCell>
      </root>
    </mxGraphModel>
  </diagram>
  <diagram id="cDLIAaBjinaRB8GPLYyi" name="/workspaces (post)">
    <mxGraphModel dx="780" dy="1681" grid="1" gridSize="10" guides="1" tooltips="1" connect="1" arrows="1" fold="1" page="1" pageScale="1" pageWidth="827" pageHeight="1169" math="0" shadow="0">
      <root>
        <mxCell id="0" />
        <mxCell id="1" parent="0" />
        <mxCell id="7JnlgB1tNphu0dHaSalx-1" style="edgeStyle=none;curved=1;rounded=0;orthogonalLoop=1;jettySize=auto;html=1;fontSize=12;startSize=8;endSize=8;fontFamily=Helvetica;" edge="1" parent="1" source="7JnlgB1tNphu0dHaSalx-2">
          <mxGeometry relative="1" as="geometry">
            <mxPoint x="80" y="-880" as="targetPoint" />
          </mxGeometry>
        </mxCell>
        <mxCell id="7JnlgB1tNphu0dHaSalx-2" value="User" style="rounded=0;whiteSpace=wrap;html=1;fontFamily=Helvetica;" vertex="1" parent="1">
          <mxGeometry x="20" y="-1160" width="120" height="40" as="geometry" />
        </mxCell>
        <mxCell id="7JnlgB1tNphu0dHaSalx-3" style="edgeStyle=none;curved=1;rounded=0;orthogonalLoop=1;jettySize=auto;html=1;fontSize=12;startSize=8;endSize=8;fontFamily=Helvetica;" edge="1" parent="1" source="7JnlgB1tNphu0dHaSalx-4">
          <mxGeometry relative="1" as="geometry">
            <mxPoint x="400" y="-880" as="targetPoint" />
          </mxGeometry>
        </mxCell>
        <mxCell id="7JnlgB1tNphu0dHaSalx-4" value="Workspace" style="rounded=0;whiteSpace=wrap;html=1;fontFamily=Helvetica;" vertex="1" parent="1">
          <mxGeometry x="340" y="-1160" width="120" height="40" as="geometry" />
        </mxCell>
      </root>
    </mxGraphModel>
  </diagram>
</mxfile>
